<svg width="48" height="48" viewBox="0 0 48 48" fill="none" xmlns="http://www.w3.org/2000/svg">
<path d="M24 34L15 29V19L24 14L33 19V29L24 34ZM21.1 21.25C21.4833 20.85 21.925 20.5417 22.425 20.325C22.925 20.1083 23.45 20 24 20C24.55 20 25.075 20.1083 25.575 20.325C26.075 20.5417 26.5167 20.85 26.9 21.25L29.9 19.575L24 16.3L18.1 19.575L21.1 21.25ZM23 31.15V27.875C22.1 27.6417 21.375 27.1667 20.825 26.45C20.275 25.7333 20 24.9167 20 24C20 23.8167 20.0083 23.6458 20.025 23.4875C20.0417 23.3292 20.075 23.1667 20.125 23L17 21.25V27.825L23 31.15ZM24 26C24.55 26 25.0208 25.8042 25.4125 25.4125C25.8042 25.0208 26 24.55 26 24C26 23.45 25.8042 22.9792 25.4125 22.5875C25.0208 22.1958 24.55 22 24 22C23.45 22 22.9792 22.1958 22.5875 22.5875C22.1958 22.9792 22 23.45 22 24C22 24.55 22.1958 25.0208 22.5875 25.4125C22.9792 25.8042 23.45 26 24 26ZM25 31.15L31 27.825V21.25L27.875 23C27.925 23.1667 27.9583 23.3292 27.975 23.4875C27.9917 23.6458 28 23.8167 28 24C28 24.9167 27.725 25.7333 27.175 26.45C26.625 27.1667 25.9 27.6417 25 27.875V31.15Z" fill="#0052CC"/>
</svg>
